<svg width="59" height="59" viewBox="0 0 59 59" fill="none" xmlns="http://www.w3.org/2000/svg">
<path d="M54.221 44.616C54.403 45.834 54.5 47.079 54.5 48.348C38.067 52.292 20.933 52.292 4.5 48.348C4.5 47.079 4.596 45.834 4.779 44.616C2.067 46.076 0.5 47.602 0.5 48.848C0.5 52.438 13.484 55.348 29.5 55.348C45.516 55.348 58.5 52.438 58.5 48.848C58.5 47.602 56.933 46.076 54.221 44.616Z" fill="#D2D5D7"/>
<path d="M29.5 55.848C15.199 55.848 0 53.395 0 48.848C0 47.008 2.47 45.291 4.541 44.175L5.42 43.701L5.273 44.689C5.111 45.769 5.021 46.866 5.003 47.953C21.037 51.736 37.962 51.736 53.996 47.953C53.978 46.866 53.888 45.769 53.726 44.689L53.579 43.701L54.458 44.175C56.53 45.291 59 47.008 59 48.848C59 53.395 43.801 55.848 29.5 55.848ZM4.154 45.546C2.162 46.745 1 47.95 1 48.848C1 51.686 12.705 54.848 29.5 54.848C46.295 54.848 58 51.686 58 48.848C58 47.951 56.838 46.745 54.846 45.546C54.948 46.479 55 47.417 55 48.348V48.743L54.617 48.835C38.185 52.778 20.815 52.778 4.384 48.835L4 48.742V48.347C4 47.417 4.052 46.479 4.154 45.546Z" fill="#E6E6E6"/>
<path d="M4.5 48.348C4.5 34.541 15.693 23.348 29.5 23.348C43.307 23.348 54.5 34.541 54.5 48.348C38.067 52.292 20.933 52.292 4.5 48.348Z" fill="#E6E6E6"/>
<path d="M29.5 51.792C21.049 51.792 12.599 50.806 4.383 48.834L4 48.742V48.347C4 34.286 15.439 22.847 29.5 22.847C43.561 22.847 55 34.287 55 48.348V48.743L54.617 48.835C46.401 50.806 37.951 51.792 29.5 51.792ZM5.003 47.953C21.038 51.738 37.962 51.738 53.997 47.953C53.785 34.626 42.877 23.848 29.5 23.848C16.123 23.848 5.215 34.626 5.003 47.953Z" fill="#D2D5D7"/>
<path d="M18.557 21.348C18.301 21.348 18.045 21.25 17.85 21.055C16.055 19.26 16.055 16.338 17.85 14.543C18.342 14.051 18.614 13.397 18.614 12.701C18.614 12.005 18.343 11.351 17.85 10.859C17.459 10.468 17.459 9.836 17.85 9.445C18.241 9.054 18.873 9.054 19.264 9.445C20.134 10.315 20.614 11.471 20.614 12.701C20.614 13.931 20.135 15.087 19.264 15.957C18.249 16.973 18.249 18.625 19.264 19.641C19.655 20.032 19.655 20.664 19.264 21.055C19.068 21.25 18.812 21.348 18.557 21.348Z" fill="#E6E6E6"/>
<path d="M40.557 21.348C40.301 21.348 40.045 21.25 39.85 21.055C38.055 19.26 38.055 16.338 39.85 14.543C40.342 14.051 40.614 13.397 40.614 12.701C40.614 12.005 40.343 11.351 39.85 10.859C39.459 10.468 39.459 9.836 39.85 9.445C40.241 9.054 40.873 9.054 41.264 9.445C42.134 10.315 42.614 11.471 42.614 12.701C42.614 13.931 42.135 15.087 41.264 15.957C40.249 16.973 40.249 18.625 41.264 19.641C41.655 20.032 41.655 20.664 41.264 21.055C41.068 21.25 40.812 21.348 40.557 21.348Z" fill="#E6E6E6"/>
<path d="M29.557 15.348C29.301 15.348 29.045 15.25 28.85 15.055C27.055 13.26 27.055 10.338 28.85 8.543C29.342 8.051 29.614 7.397 29.614 6.701C29.614 6.005 29.343 5.351 28.85 4.859C28.459 4.468 28.459 3.836 28.85 3.445C29.241 3.054 29.873 3.054 30.264 3.445C31.134 4.315 31.614 5.471 31.614 6.701C31.614 7.931 31.135 9.087 30.264 9.957C29.249 10.973 29.249 12.625 30.264 13.641C30.655 14.032 30.655 14.664 30.264 15.055C30.068 15.25 29.812 15.348 29.557 15.348Z" fill="#E6E6E6"/>
<path d="M33.947 24.744L33.122 24.62C30.728 24.259 28.272 24.259 25.879 24.62L25.054 24.744L24.784 23.954C24.594 23.396 24.501 22.871 24.501 22.348C24.501 19.591 26.744 17.348 29.501 17.348C32.258 17.348 34.501 19.591 34.501 22.348C34.501 22.871 34.408 23.397 34.218 23.954L33.947 24.744ZM29.5 22.348C30.496 22.348 31.5 22.406 32.494 22.52C32.498 22.462 32.5 22.405 32.5 22.348C32.5 20.694 31.154 19.348 29.5 19.348C27.846 19.348 26.5 20.694 26.5 22.348C26.5 22.405 26.502 22.462 26.506 22.52C27.5 22.405 28.504 22.348 29.5 22.348Z" fill="#D2D5D7"/>
<path d="M24.845 28.86C24.388 28.86 23.975 28.545 23.87 28.08C23.748 27.541 24.087 27.006 24.626 26.885C26.208 26.529 27.843 26.348 29.486 26.348C30.043 26.391 30.5 26.791 30.499 27.349C30.499 27.901 30.051 28.348 29.499 28.348C29.495 28.348 29.49 28.348 29.486 28.348C27.99 28.348 26.504 28.512 25.065 28.836C24.992 28.853 24.918 28.86 24.845 28.86Z" fill="white"/>
<path d="M9.50101 45.348C9.44101 45.348 9.38101 45.343 9.32101 45.331C8.77801 45.232 8.41701 44.712 8.51601 44.168C9.65801 37.908 13.447 32.33 18.65 29.247C19.126 28.966 19.738 29.122 20.02 29.598C20.302 30.074 20.145 30.687 19.669 30.968C14.956 33.76 11.522 38.829 10.483 44.528C10.396 45.01 9.97501 45.348 9.50101 45.348Z" fill="white"/>
</svg>
