<svg width="48" height="48" viewBox="0 0 48 48" fill="none" xmlns="http://www.w3.org/2000/svg">
<path d="M21.737 28H3.263C1.03699 28 -0.534005 25.773 0.169995 23.616C1.459 19.665 2.922 17 7 17H18C22.078 17 23.541 19.665 24.83 23.616C25.534 25.773 23.962 28 21.737 28Z" fill="#E6E6E6"/>
<path d="M24.959 25.149C24.735 26.713 23.428 28 21.737 28H3.263C1.572 28 0.265 26.713 0.041 25.149C0.019 25.154 0 25.17 0 25.199V41.757C0 44.652 2.348 47 5.243 47H19.756C22.652 47 25 44.652 25 41.757V25.199C25 25.17 24.981 25.154 24.959 25.149Z" fill="#455560"/>
<path d="M12.5 25C15.5376 25 18 23.8807 18 22.5C18 21.1193 15.5376 20 12.5 20C9.46243 20 7 21.1193 7 22.5C7 23.8807 9.46243 25 12.5 25Z" fill="#D75A4A"/>
<path d="M33.737 12H15.263C13.037 12 11.466 9.773 12.17 7.616C13.459 3.665 14.922 1 19 1H30C34.078 1 35.541 3.665 36.83 7.616C37.534 9.773 35.962 12 33.737 12Z" fill="#E6E6E6"/>
<path d="M24.5 9C27.5376 9 30 7.88071 30 6.5C30 5.11929 27.5376 4 24.5 4C21.4624 4 19 5.11929 19 6.5C19 7.88071 21.4624 9 24.5 9Z" fill="#D75A4A"/>
<path d="M47.83 23.616C46.541 19.665 43.078 17 39 17H27C23.752 17 25.164 18.695 24 21.381C24.297 22.066 24.568 22.813 24.83 23.616C25.249 24.899 24.85 26.196 24 27.045C24.579 27.624 25.362 28 26.263 28H44.737C46.962 28 48.534 25.773 47.83 23.616Z" fill="#E6E6E6"/>
<path d="M47.959 25.149C47.735 26.713 46.428 28 44.737 28H26.263C25.809 28 25.385 27.901 25 27.735V41.756C25 42.901 24.623 43.952 24 44.815C24.952 46.133 26.493 47 28.243 47H42.756C45.652 47 48 44.652 48 41.756V25.199C48 25.17 47.981 25.154 47.959 25.149Z" fill="#38454F"/>
<path d="M18 17C21.248 17 22.836 18.695 24 21.381C25.164 18.695 23.752 17 27 17H37V9.199C37 9.171 36.981 9.155 36.959 9.149C36.735 10.713 35.428 12 33.737 12H15.263C13.572 12 12.265 10.713 12.041 9.149C12.019 9.154 12 9.17 12 9.199V17H18Z" fill="#38454F"/>
<path d="M35.5 25C38.5376 25 41 23.8807 41 22.5C41 21.1193 38.5376 20 35.5 20C32.4624 20 30 21.1193 30 22.5C30 23.8807 32.4624 25 35.5 25Z" fill="#D75A4A"/>
<path d="M5 44C4.448 44 4 43.553 4 43V37C4 36.447 4.448 36 5 36C5.552 36 6 36.447 6 37V43C6 43.553 5.552 44 5 44Z" fill="#546A79"/>
<path d="M5 34.997C4.448 34.997 4 34.55 4 33.997V31C4 30.447 4.448 30 5 30C5.552 30 6 30.447 6 31V33.997C6 34.55 5.552 34.997 5 34.997Z" fill="#546A79"/>
<path d="M30 44C29.448 44 29 43.553 29 43V37C29 36.447 29.448 36 30 36C30.552 36 31 36.447 31 37V43C31 43.553 30.552 44 30 44Z" fill="#546A79"/>
<path d="M30 34.997C29.448 34.997 29 34.55 29 33.997V31C29 30.447 29.448 30 30 30C30.552 30 31 30.447 31 31V33.997C31 34.55 30.552 34.997 30 34.997Z" fill="#546A79"/>
</svg>
