<svg width="55" height="55" viewBox="0 0 55 55" fill="none" xmlns="http://www.w3.org/2000/svg">
<path d="M51 33.646H3C1.9 33.646 1 32.746 1 31.646C1 30.546 1.9 29.646 3 29.646H51C52.1 29.646 53 30.546 53 31.646C53 32.746 52.1 33.646 51 33.646Z" fill="#B85133"/>
<path d="M50 25.646H2C0.9 25.646 0 24.746 0 23.646C0 22.546 0.9 21.646 2 21.646H50C51.1 21.646 52 22.546 52 23.646C52 24.746 51.1 25.646 50 25.646Z" fill="#B85133"/>
<path d="M53 29.646H4C2.9 29.646 2 28.746 2 27.646C2 26.546 2.9 25.646 4 25.646H53C54.1 25.646 55 26.546 55 27.646C55 28.746 54.1 29.646 53 29.646Z" fill="#6A3311"/>
<path d="M5.444 17.354V21.018V21.02C5.444 22.539 6.675 23.77 8.194 23.77C9.472 23.77 10.546 22.898 10.855 21.717C10.881 21.619 11.008 21.619 11.033 21.717C11.342 22.898 12.416 23.77 13.694 23.77C14.972 23.77 16.046 22.898 16.355 21.717C16.381 21.619 16.508 21.619 16.533 21.717C16.842 22.898 17.916 23.77 19.194 23.77C20.472 23.77 21.546 22.898 21.855 21.717C21.881 21.619 22.008 21.619 22.033 21.717C22.342 22.898 23.416 23.77 24.694 23.77C25.972 23.77 27.046 22.898 27.355 21.717C27.381 21.619 27.508 21.619 27.533 21.717C27.842 22.898 28.916 23.77 30.194 23.77C31.472 23.77 32.546 22.898 32.855 21.717C32.881 21.619 33.008 21.619 33.033 21.717C33.342 22.898 34.416 23.77 35.694 23.77C36.972 23.77 38.046 22.898 38.355 21.717C38.381 21.619 38.508 21.619 38.533 21.717C38.842 22.898 39.916 23.77 41.194 23.77C42.472 23.77 43.546 22.898 43.855 21.717C43.881 21.619 44.008 21.619 44.033 21.717C44.342 22.898 45.416 23.77 46.694 23.77C48.213 23.77 49.444 22.539 49.444 21.02V21.018V17.354H5.444Z" fill="#88C057"/>
<path d="M49 37.646V33.982V33.98C49 32.461 47.769 31.23 46.25 31.23C44.972 31.23 43.898 32.102 43.589 33.283C43.563 33.381 43.436 33.381 43.411 33.283C43.102 32.102 42.028 31.23 40.75 31.23C39.472 31.23 38.398 32.102 38.089 33.283C38.063 33.381 37.936 33.381 37.911 33.283C37.602 32.102 36.528 31.23 35.25 31.23C33.972 31.23 32.898 32.102 32.589 33.283C32.563 33.381 32.436 33.381 32.411 33.283C32.102 32.102 31.028 31.23 29.75 31.23C28.472 31.23 27.398 32.102 27.089 33.283C27.063 33.381 26.936 33.381 26.911 33.283C26.602 32.102 25.528 31.23 24.25 31.23C22.972 31.23 21.898 32.102 21.589 33.283C21.563 33.381 21.436 33.381 21.411 33.283C21.102 32.102 20.028 31.23 18.75 31.23C17.472 31.23 16.398 32.102 16.089 33.283C16.063 33.381 15.936 33.381 15.911 33.283C15.602 32.102 14.528 31.23 13.25 31.23C11.972 31.23 10.898 32.102 10.589 33.283C10.563 33.381 10.436 33.381 10.411 33.283C10.102 32.102 9.028 31.23 7.75 31.23C6.231 31.23 5 32.461 5 33.98V33.982V37.646H49Z" fill="#659C35"/>
<path d="M27.444 7.354H38.444C46.68 7.354 50.386 13.35 51.762 16.488C52.476 18.117 51.524 20.082 49.763 20.328C49.639 20.345 49.521 20.354 49.411 20.354H27.444H5.478C5.368 20.354 5.25 20.345 5.126 20.328C3.365 20.082 2.413 18.117 3.127 16.488C4.502 13.35 8.208 7.354 16.445 7.354H27.444Z" fill="#D99F4C"/>
<path d="M37.443 17.354C37.253 17.354 37.06 17.299 36.889 17.186L33.889 15.186C33.43 14.879 33.306 14.259 33.612 13.799C33.918 13.339 34.539 13.216 34.999 13.522L37.999 15.522C38.458 15.829 38.582 16.449 38.276 16.909C38.083 17.198 37.766 17.354 37.443 17.354Z" fill="#EFDFA0"/>
<path d="M23.443 13.354C23.293 13.354 23.14 13.32 22.997 13.249C22.503 13.002 22.303 12.401 22.55 11.907L23.55 9.907C23.797 9.413 24.396 9.213 24.892 9.46C25.386 9.707 25.586 10.308 25.339 10.802L24.339 12.802C24.163 13.152 23.81 13.354 23.443 13.354Z" fill="#EFDFA0"/>
<path d="M12.443 16.354C12.293 16.354 12.14 16.32 11.997 16.249C11.503 16.002 11.303 15.401 11.55 14.907L12.55 12.907C12.797 12.414 13.397 12.215 13.892 12.46C14.386 12.707 14.586 13.308 14.339 13.802L13.339 15.802C13.163 16.152 12.81 16.354 12.443 16.354Z" fill="#EFDFA0"/>
<path d="M49 34.646H45.034H41.034H27.034H5.068C3.968 34.646 3.068 35.546 3.068 36.646C3.068 36.646 4.878 47.646 16.034 47.646H27.034H38.034C49.19 47.646 51 36.646 51 36.646C51 35.546 50.1 34.646 49 34.646Z" fill="#D99F4C"/>
<path d="M15.033 41.646C14.843 41.646 14.65 41.591 14.479 41.478L11.479 39.478C11.02 39.171 10.896 38.551 11.202 38.091C11.508 37.632 12.128 37.507 12.589 37.814L15.589 39.814C16.048 40.121 16.172 40.741 15.866 41.201C15.673 41.49 15.356 41.646 15.033 41.646Z" fill="#EFDFA0"/>
<path d="M26.035 43.646C25.668 43.646 25.315 43.444 25.139 43.093L24.139 41.093C23.892 40.599 24.092 39.998 24.586 39.751C25.081 39.504 25.681 39.704 25.928 40.198L26.928 42.198C27.175 42.692 26.975 43.293 26.481 43.54C26.338 43.612 26.185 43.646 26.035 43.646Z" fill="#EFDFA0"/>
<path d="M33.033 41.645C32.883 41.645 32.73 41.611 32.587 41.54C32.093 41.293 31.893 40.692 32.14 40.198L33.14 38.198C33.387 37.705 33.986 37.506 34.482 37.751C34.976 37.998 35.176 38.599 34.929 39.093L33.929 41.093C33.753 41.443 33.4 41.645 33.033 41.645Z" fill="#EFDFA0"/>
</svg>
