<svg width="54" height="54" viewBox="0 0 54 54" fill="none" xmlns="http://www.w3.org/2000/svg">
<path d="M41 10H13C11.9 10 11 9.1 11 8V7C11 5.9 11.9 5 13 5H41C42.1 5 43 5.9 43 7V8C43 9.1 42.1 10 41 10Z" fill="#E6E6E6"/>
<path d="M16 5V0H20L23 5H16Z" fill="#D2D5D7"/>
<path d="M41 25L42 20H12L13 25H41Z" fill="#E6E6E6"/>
<path d="M14.941 45L16 54H39L40 45H14.941Z" fill="#E6E6E6"/>
<path d="M42 45H13L11 25H43L42 45Z" fill="#F75B57"/>
<path d="M27 41C31.9706 41 36 38.3137 36 35C36 31.6863 31.9706 29 27 29C22.0294 29 18 31.6863 18 35C18 38.3137 22.0294 41 27 41Z" fill="#F9DA49"/>
<path d="M43 20H11C9.9 20 9 19.1 9 18V12C9 10.9 9.9 10 11 10H43C44.1 10 45 10.9 45 12V18C45 19.1 44.1 20 43 20Z" fill="#D2D5D7"/>
</svg>
