<svg width="56" height="56" viewBox="0 0 56 56" fill="none" xmlns="http://www.w3.org/2000/svg">
<g clip-path="url(#clip0)">
<path d="M55.729 18.653C51.876 -0.620998 22.861 1.658 9.95001 3.689C7.80401 4.027 6.18101 5.8 6.02301 7.967L4.48101 27.674C2.96801 28.539 -1.10299 31.379 0.283007 36.276C0.729007 37.85 1.36101 38.576 2.06601 38.753C2.86001 38.952 3.43701 39.615 3.31001 40.424C2.90801 42.974 2.27901 47.344 2.23101 49.999C2.16001 53.924 6.79801 53.424 6.79801 53.424C6.79801 53.424 13.235 52.996 9.52501 47.715C7.47601 44.799 7.65401 42.669 11.062 41.343L25.735 35.242C25.535 36.685 25.701 39.822 28.378 40.003C30.225 40.128 33.373 39.337 32.115 33.777C32.024 33.376 32.027 32.968 32.122 32.586L52.942 23.93C55.013 23.069 56.169 20.854 55.729 18.653Z" fill="#FFF1C6"/>
<path d="M8.96001 45.647C8.78201 45.719 8.65101 45.846 8.54501 45.991C7.69601 43.946 8.36501 42.392 11.06 41.344L25.733 35.243C25.613 36.105 25.629 37.568 26.227 38.647L8.96001 45.647ZM54.734 25.294C53.592 27.666 51.279 28.493 51.205 28.521L32.393 36.148C32.4 35.473 32.322 34.696 32.114 33.778C32.023 33.377 32.026 32.969 32.121 32.588L52.941 23.932C54.042 23.474 54.873 22.629 55.355 21.612C55.45 22.986 55.251 24.222 54.734 25.294Z" fill="#E0AB36"/>
<path d="M55.729 18.703C51.876 -0.572004 22.861 1.707 9.95 3.738C7.846 4.069 6.254 5.783 6.043 7.892C40.176 2.124 49.049 10.426 53.547 20.26C54.193 21.672 53.801 22.928 53.078 23.908C55.06 23.006 56.158 20.852 55.729 18.703Z" fill="#F4C44E"/>
<path d="M12 3.54201V6.99401C12.682 6.90401 13.341 6.82701 14 6.75001V3.54201C14 3.41501 13.971 3.29601 13.928 3.18401C13.266 3.26401 12.636 3.34901 12.022 3.43401C12.018 3.47101 12 3.50301 12 3.54201Z" fill="#E0AB36"/>
<path d="M20 2.79801V6.19101C20.683 6.14601 21.345 6.11301 22 6.08401V2.79801C22 2.69601 21.97 2.60401 21.942 2.51201C21.298 2.54001 20.664 2.57601 20.036 2.61601C20.025 2.67801 20 2.73401 20 2.79801Z" fill="#E0AB36"/>
<path d="M27 2.798V6.006C27.685 6.018 28.35 6.041 29 6.073V2.798C29 2.69 28.97 2.59 28.938 2.493C28.315 2.467 27.692 2.45 27.072 2.439C27.029 2.551 27 2.671 27 2.798Z" fill="#E0AB36"/>
<path d="M35.204 3.075C35.197 3.093 35.182 3.105 35.176 3.123L33.983 6.546C34.673 6.646 35.341 6.758 35.983 6.884L37.065 3.781C37.109 3.654 37.124 3.524 37.117 3.398C36.484 3.278 35.847 3.17 35.204 3.075Z" fill="#E0AB36"/>
<path d="M42.363 4.76401C42.324 4.82501 42.276 4.87801 42.25 4.94901L41.043 8.27901C41.691 8.52101 42.302 8.78201 42.888 9.05501L44.129 5.63101C44.152 5.56801 44.148 5.50401 44.158 5.44101C43.573 5.19701 42.973 4.97301 42.363 4.76401Z" fill="#E0AB36"/>
<path d="M48.865 13.209L51.107 9.95501C51.112 9.94801 51.112 9.94001 51.117 9.93301C50.656 9.47201 50.163 9.04501 49.652 8.63501C49.584 8.69201 49.512 8.74401 49.46 8.82101L47.376 11.846C47.908 12.282 48.401 12.738 48.865 13.209Z" fill="#E0AB36"/>
<path d="M54.117 14.047C54.009 14.087 53.904 14.138 53.812 14.217L51.371 16.305C51.748 16.871 52.098 17.448 52.424 18.036L54.921 15.9C54.682 15.256 54.419 14.635 54.117 14.047Z" fill="#E0AB36"/>
<path d="M32.636 17.426C32.134 17.426 31.642 17.288 31.213 17.022C30.605 16.645 30.192 16.058 30.05 15.369C29.984 15.048 29.632 14.849 29.26 14.923C28.571 15.069 27.863 14.944 27.271 14.576C26.663 14.199 26.25 13.612 26.108 12.923C26.067 12.726 25.928 12.613 25.849 12.565C25.695 12.469 25.507 12.435 25.319 12.478C24.775 12.585 24.249 12.242 24.137 11.702C24.025 11.161 24.372 10.632 24.913 10.519C25.602 10.374 26.311 10.498 26.903 10.866C27.511 11.242 27.924 11.83 28.067 12.519C28.108 12.716 28.246 12.829 28.325 12.877C28.478 12.972 28.666 13.005 28.855 12.964C30.305 12.673 31.718 13.563 32.008 14.965C32.049 15.162 32.187 15.275 32.266 15.323C32.419 15.418 32.607 15.451 32.796 15.41C33.339 15.299 33.865 15.646 33.978 16.186C34.09 16.727 33.743 17.256 33.202 17.369C33.014 17.408 32.824 17.426 32.636 17.426Z" fill="#88C057"/>
<path d="M25 30.284C24.458 30.284 24.013 29.85 24.001 29.306C23.988 28.714 24.21 28.135 24.612 27.715C25 27.311 25.517 27.081 26.069 27.069C26.115 27.068 26.182 26.992 26.179 26.876C26.167 26.303 26.367 25.757 26.743 25.338C27.136 24.9 27.67 24.652 28.248 24.641C28.294 24.64 28.361 24.564 28.358 24.448C28.346 23.896 28.784 23.438 29.337 23.427C29.344 23.427 29.352 23.427 29.359 23.427C29.901 23.427 30.347 23.861 30.359 24.406C30.385 25.613 29.457 26.616 28.291 26.642C28.216 26.643 28.178 26.76 28.18 26.834C28.206 28.041 27.278 29.044 26.112 29.07C26.039 29.118 25.998 29.171 26 29.261C26.013 29.814 25.575 30.271 25.023 30.283C25.015 30.284 25.008 30.284 25 30.284Z" fill="#659C35"/>
<path d="M11.443 25.426C11.309 25.426 11.172 25.399 11.041 25.341C10.535 25.119 10.306 24.528 10.528 24.024C10.813 23.377 11.322 22.872 11.964 22.603C12.622 22.327 13.34 22.331 13.986 22.614C14.172 22.695 14.342 22.647 14.428 22.611C14.595 22.542 14.729 22.406 14.806 22.23C15.403 20.876 16.952 20.241 18.264 20.82C18.563 20.951 18.933 20.78 19.085 20.435C19.308 19.93 19.901 19.703 20.403 19.923C20.908 20.146 21.138 20.736 20.915 21.241C20.32 22.594 18.77 23.228 17.458 22.649C17.157 22.515 16.789 22.689 16.637 23.035C16.353 23.681 15.843 24.186 15.201 24.455C14.543 24.73 13.825 24.726 13.18 24.443C12.995 24.363 12.824 24.41 12.738 24.446C12.571 24.516 12.437 24.652 12.36 24.828C12.194 25.204 11.828 25.426 11.443 25.426Z" fill="#659C35"/>
<path d="M19.71 29.542C19.71 32.36 16.668 34.645 13.043 34.645C8.75101 34.645 7.37601 34.36 7.37601 31.542C7.37601 28.724 14.57 26.728 16.043 26.728C17.516 26.728 19.71 26.724 19.71 29.542Z" fill="#CD6E61"/>
<path d="M22.029 13.316C22.029 16.134 18.987 18.419 15.362 18.419C11.07 18.419 9.69501 18.134 9.69501 15.316C9.69501 12.498 16.889 10.502 18.362 10.502C19.835 10.502 22.029 10.498 22.029 13.316Z" fill="#CD6E61"/>
<path d="M44.333 18.275C44.333 21.093 41.291 23.378 37.666 23.378C33.374 23.378 31.999 23.093 31.999 20.275C31.999 17.457 39.193 15.461 40.666 15.461C42.139 15.461 44.333 15.456 44.333 18.275Z" fill="#CD6E61"/>
<path d="M35.501 21.551C36.0533 21.551 36.501 21.1033 36.501 20.551C36.501 19.9987 36.0533 19.551 35.501 19.551C34.9487 19.551 34.501 19.9987 34.501 20.551C34.501 21.1033 34.9487 21.551 35.501 21.551Z" fill="#D79C8C"/>
<path d="M40.72 18.903C41.2723 18.903 41.72 18.4553 41.72 17.903C41.72 17.3507 41.2723 16.903 40.72 16.903C40.1677 16.903 39.72 17.3507 39.72 17.903C39.72 18.4553 40.1677 18.903 40.72 18.903Z" fill="#D79C8C"/>
<path d="M39.407 21.419C39.9593 21.419 40.407 20.9713 40.407 20.419C40.407 19.8667 39.9593 19.419 39.407 19.419C38.8547 19.419 38.407 19.8667 38.407 20.419C38.407 20.9713 38.8547 21.419 39.407 21.419Z" fill="#D79C8C"/>
<path d="M13.253 16.785C13.8053 16.785 14.253 16.3373 14.253 15.785C14.253 15.2327 13.8053 14.785 13.253 14.785C12.7007 14.785 12.253 15.2327 12.253 15.785C12.253 16.3373 12.7007 16.785 13.253 16.785Z" fill="#D79C8C"/>
<path d="M19.085 15.461C19.6373 15.461 20.085 15.0133 20.085 14.461C20.085 13.9087 19.6373 13.461 19.085 13.461C18.5327 13.461 18.085 13.9087 18.085 14.461C18.085 15.0133 18.5327 15.461 19.085 15.461Z" fill="#D79C8C"/>
<path d="M15.862 14.461C16.4143 14.461 16.862 14.0133 16.862 13.461C16.862 12.9087 16.4143 12.461 15.862 12.461C15.3097 12.461 14.862 12.9087 14.862 13.461C14.862 14.0133 15.3097 14.461 15.862 14.461Z" fill="#D79C8C"/>
<path d="M11.003 32.848C11.5553 32.848 12.003 32.4003 12.003 31.848C12.003 31.2957 11.5553 30.848 11.003 30.848C10.4507 30.848 10.003 31.2957 10.003 31.848C10.003 32.4003 10.4507 32.848 11.003 32.848Z" fill="#D79C8C"/>
<path d="M14.253 30.525C14.8053 30.525 15.253 30.0773 15.253 29.525C15.253 28.9727 14.8053 28.525 14.253 28.525C13.7007 28.525 13.253 28.9727 13.253 29.525C13.253 30.0773 13.7007 30.525 14.253 30.525Z" fill="#D79C8C"/>
<path d="M15.862 32.525C16.4143 32.525 16.862 32.0773 16.862 31.525C16.862 30.9727 16.4143 30.525 15.862 30.525C15.3097 30.525 14.862 30.9727 14.862 31.525C14.862 32.0773 15.3097 32.525 15.862 32.525Z" fill="#D79C8C"/>
</g>
<defs>
<clipPath id="clip0">
<rect width="55.821" height="55.821" fill="white"/>
</clipPath>
</defs>
</svg>
