<svg width="396" height="383" viewBox="0 0 396 383" fill="none" xmlns="http://www.w3.org/2000/svg">
<path d="M226.237 372.183L225.672 377.414C225.672 377.414 225.141 379.27 222.278 379.429C220.225 379.544 215.172 379.494 212.477 379.457C210.769 379.433 210.468 376.921 212.142 376.578L212.203 376.566C214.271 376.195 217.718 374.852 218.036 372.183H226.237V372.183Z" fill="#010101"/>
<path d="M166.47 371.751L165.905 376.982C165.905 376.982 165.375 378.839 162.511 378.998C160.458 379.112 155.405 379.062 152.71 379.025C151.002 379.001 150.701 376.489 152.375 376.146L152.437 376.134C154.505 375.763 157.951 374.42 158.269 371.751H166.47V371.751Z" fill="#010101"/>
<path d="M259.221 22.3311C254.878 16.4838 244.081 17.1481 235.105 23.8148C226.58 30.1458 222.778 39.606 226.135 45.5512C225.729 49.3096 224.422 59.2713 221.807 61.4444L244.619 59.4825C244.517 59.4485 241.061 54.5698 239.895 50.0257C243.488 49.2924 247.299 47.6134 250.831 44.9899C259.808 38.3232 263.564 28.1784 259.221 22.3311Z" fill="#F8D2AF"/>
<path d="M218.236 63.7108L222.448 58.3404L239.737 56.4438C239.737 56.4438 264.612 73.287 261.043 139.544C261.043 139.544 260.596 169.884 255.242 186.392L178.054 182.6C178.054 182.6 184.064 147.76 193.177 116.606C197.688 101.182 204.109 86.3927 212.212 72.5294C214.01 69.4528 216.037 66.5148 218.236 63.7108Z" fill="#FB6D3A"/>
<path d="M249.33 129.839C249.33 129.839 264.724 77.9717 248.438 70.8328C232.153 63.694 213.971 103.18 212.298 105.077L249.33 129.839Z" fill="#FF9671"/>
<path d="M255.6 184.77C255.6 184.77 253.507 204.669 241.906 220.062C238.382 224.739 226.554 232.23 221.173 235.612C208.986 243.27 201.347 255.009 195.903 268.333L185.639 300.761L166.677 372.806H157.753L157.117 298.208C157.095 295.653 157.335 293.103 157.832 290.598L179.381 182.157L184.717 182.188L255.6 184.77Z" fill="#628DC9"/>
<path d="M241.907 220.062C238.382 224.739 226.554 232.23 221.173 235.612C210.712 242.185 203.608 251.77 198.361 262.778L197.313 286.985C197.106 291.761 197.622 296.541 198.844 301.163L217.871 373.131L226.516 373.163L226.25 293.314L232.096 257.674C233.019 252.051 234.5 246.534 236.517 241.204L249.665 206.469L249.629 206.486C247.702 211.005 245.184 215.713 241.907 220.062Z" fill="#3768B2"/>
<path d="M180.67 112.626C184.77 104.887 177.128 100.09 179.261 95.8991C181.394 91.7077 185.743 95.0642 187.407 88.1982C188.844 82.2707 184.755 82.3344 184.994 78.9245C185.034 78.3612 185.215 77.8184 185.471 77.3151C186.003 76.272 187.117 74.0874 187.736 72.8449C187.96 72.3951 187.402 71.9642 187.027 72.2988C179.528 78.9902 179.682 71.7622 173.5 75.1817C167.318 78.6008 171.704 81.9084 168.225 85.0731C164.746 88.2381 158.101 82.1344 151.72 88.1342C145.654 93.8379 152.742 113.482 152.745 113.485C152.872 113.651 158.644 115.697 164.755 117.013C167.693 117.741 177.455 118.693 180.67 112.626Z" fill="#4BC5A7"/>
<path d="M99.2218 123.163C95.3812 115.914 102.54 111.421 100.541 107.496C98.5433 103.57 94.4704 106.714 92.9115 100.282C91.5658 94.7306 95.3954 94.7903 95.1717 91.5966C95.1344 91.0689 94.9648 90.5607 94.7245 90.0891C94.2269 89.1123 93.1831 87.0663 92.6033 85.9024C92.3937 85.481 92.9161 85.0774 93.2669 85.3906C100.291 91.6579 100.146 84.8883 105.937 88.091C111.727 91.2936 107.619 94.3913 110.877 97.3557C114.135 100.32 120.36 94.6032 126.337 100.223C132.018 105.565 125.379 123.965 125.377 123.968C125.258 124.123 119.851 126.039 114.128 127.272C111.376 127.954 102.232 128.845 99.2218 123.163Z" fill="#4BC5A7"/>
<path d="M112.482 78.8222C111.164 70.5131 119.601 68.5322 118.967 64.06C118.333 59.5878 113.337 61.2844 113.961 54.5273C114.499 48.6935 118.195 50.0238 119.039 46.8508C119.178 46.3265 119.182 45.7767 119.106 45.2401C118.947 44.127 118.615 41.7946 118.439 40.4732C118.375 39.9951 119.016 39.7766 119.253 40.1974C123.985 48.6114 126.094 41.9952 130.648 47.0261C135.202 52.0572 130.188 53.6977 132.364 57.6563C134.54 61.6147 142.478 58.1362 146.41 65.5737C150.147 72.644 137.594 88.2899 137.59 88.2922C137.424 88.4034 131.541 88.4665 125.579 87.7609C122.682 87.5078 113.515 85.3351 112.482 78.8222Z" fill="#4BC5A7"/>
<path d="M180.636 79.3961C179.923 78.8017 178.874 78.8493 178.215 79.5047L178.212 79.5073L178.212 79.507C177.642 80.0534 176.092 81.5506 173.919 83.7293C173.878 83.762 173.838 83.7966 173.8 83.8329C173.74 83.8903 173.684 83.9517 173.634 84.0157C165.779 91.908 150.364 108.133 143.125 120.818C140.835 124.832 138.975 128.235 137.527 131.044C138.388 124.882 138.609 118.35 138.609 113.31C138.609 107.765 138.352 101.744 137.845 95.4139C136.572 79.5347 129.63 59.0324 128.829 56.7089C128.723 56.3951 128.532 56.1159 128.278 55.9037C128.242 55.8093 128.204 55.7103 128.164 55.6074C128.087 55.286 127.838 54.164 127.78 53.8778C127.763 53.763 127.736 53.6505 127.698 53.5412C127.484 52.9281 126.954 52.475 126.315 52.3602C125.673 52.244 125.024 52.4836 124.61 52.9839C124.357 53.2898 124.244 53.6937 124.221 54.1349L124.198 54.8101C124.198 54.9969 124.234 55.2044 124.291 55.3823C124.421 55.7872 126.288 61.6048 126.543 62.3618C129.353 70.6907 132.912 83.2399 133.91 95.7288C134.408 101.959 134.661 107.875 134.661 113.31C134.661 120.498 134.23 126.818 133.381 132.096C133.291 132.658 133.195 133.199 133.096 133.729C132.008 131.407 130.261 128.129 127.877 123.949C124.494 118.021 118.271 110.839 113.647 105.859C104.168 95.6496 103.177 95.7103 102.581 95.7476C101.895 95.7911 101.286 96.2257 101.024 96.8603C100.576 97.9421 101.275 98.7351 101.693 99.2089C102.441 100.056 103.701 101.343 105.295 102.972C110.795 108.589 120 117.991 124.496 125.877C127.926 131.891 129.413 134.945 130.055 136.447C130.375 137.195 130.49 137.565 130.53 137.721L130.56 137.86C130.567 137.897 130.596 138.013 130.605 138.05C130.667 138.286 130.775 138.507 130.925 138.7L130.998 138.795C131.319 139.209 131.798 139.447 132.306 139.48C132.642 140.086 133.279 140.501 134.019 140.504C134.073 140.649 134.143 140.79 134.234 140.923C134.536 141.368 134.993 141.667 135.521 141.768C135.647 141.791 135.773 141.803 135.898 141.803C136.297 141.803 136.685 141.685 137.022 141.456C137.179 141.35 137.317 141.22 137.433 141.07L137.538 140.935C137.657 140.782 137.751 140.61 137.815 140.426C137.869 140.271 137.895 140.159 137.933 139.955C138.073 139.255 139.115 135.948 146.611 122.807C151.512 114.213 160.594 103.689 167.349 96.3739C171.199 92.2054 174.708 88.6252 176.974 86.3541L178.964 84.39C179.166 84.191 179.361 83.9979 179.542 83.8098C179.681 83.6735 179.811 83.5462 179.933 83.4283L179.999 83.3633L179.972 83.3346C180.289 82.9561 180.518 82.5905 180.593 82.2192L180.756 82.0565L180.755 82.0555C180.832 81.977 180.914 81.881 180.971 81.7975C181.495 81.0299 181.351 79.9897 180.636 79.3961Z" fill="#1B2A56"/>
<path d="M122.622 140.496C124.531 137.463 129.768 135.561 135.749 136.037C141.73 136.513 146.601 139.218 148.006 142.515L122.622 140.496Z" fill="#4BC5A7"/>
<path d="M238.483 52.3021L243.322 41.2989C243.704 40.4326 244.622 39.9225 245.554 40.0835C246.529 40.2521 247.744 40.1805 248.422 39.0773C249.111 37.956 248.346 37.0891 247.515 36.534C246.741 36.0176 246.435 35.0269 246.747 34.1504C247.847 31.0626 249.827 24.2682 248.456 18.4348C247.433 14.0844 257.539 18.1055 261.818 20.4175C276.338 28.2659 275.342 40.2333 273.308 46.933C272.503 49.5806 273.421 52.4473 275.664 54.0669L275.707 54.0973C292.005 65.8641 288.805 80.0759 286.105 86.5729C285.229 88.6813 285.804 91.0708 287.416 92.6881C294.839 100.134 295.881 112.519 288.834 121.329C282.583 129.146 271.83 131.504 262.866 127.051C254.192 122.743 249.898 113.562 251.237 104.758C251.596 102.396 250.45 100.058 248.414 98.8103L248.275 98.7252C235.935 91.1645 232.082 75.019 239.678 62.701L239.702 62.6614C240.93 60.6861 240.516 58.1385 238.705 56.6789C238.7 56.6746 238.694 56.67 238.689 56.6657C237.667 55.8407 237.395 54.3933 238.001 53.2287L238.483 52.3021Z" fill="#2A307F"/>
<path d="M123.828 139.717C126.075 139.218 134.134 141.068 134.134 141.068C137.286 137.16 145.688 141.77 146.661 142.418C148.087 143.369 184.912 139.037 195.521 138.284C200.169 137.953 204.096 134.732 205.338 130.24L212.298 105.076L249.33 129.839C246.952 140.682 237.985 152.956 226.817 163.505C214.446 175.192 147.776 149.987 147.776 149.987C143.948 148.921 141.178 147.356 140.181 147.493C135.406 148.149 127.478 142.93 123.983 141.932C120.488 140.933 121.581 140.216 123.828 139.717Z" fill="#F8D2AF"/>
</svg>
