<svg width="52" height="52" viewBox="0 0 52 52" fill="none" xmlns="http://www.w3.org/2000/svg">
<g clip-path="url(#clip0)">
<path d="M40.876 5.31601C40.663 5.31601 40.448 5.24801 40.267 5.10801C39.829 4.77101 39.748 4.14301 40.085 3.70601C41.441 1.94501 43.274 0.708006 45.245 0.223006C47.3 -0.281994 49.26 0.0790064 50.767 1.24101C51.205 1.57801 51.286 2.20601 50.949 2.64301C50.611 3.08001 49.983 3.16101 49.547 2.82501C48.531 2.04201 47.175 1.81001 45.723 2.16501C44.191 2.54201 42.75 3.52301 41.669 4.92701C41.473 5.18201 41.176 5.31601 40.876 5.31601Z" fill="#4C312C"/>
<path d="M6.914 49.048C-1.191 43.264 -0.864002 32.008 4.567 23.19C6.552 19.967 9.272 17.259 12.352 15.059L26.934 4.64301C30.75 1.33801 35.193 0.431006 39.445 3.46601C43.698 6.50001 44.284 10.997 42.4 15.68L37.29 32.856C36.211 36.484 34.534 39.936 32.131 42.861C25.557 50.864 15.019 54.832 6.914 49.048Z" fill="#436B1C"/>
<path d="M9.582 45.309C3.625 41.057 4.47 31.934 9.132 24.515C10.836 21.803 13.08 19.469 15.576 17.527L23.467 12.487C25.89 10.94 28.281 9.33401 30.517 7.52701C32.743 5.72701 34.667 4.96901 37.123 6.72201C39.641 8.51901 39.494 10.655 38.45 13.451C37.798 15.199 37.226 16.981 36.785 18.793L33.907 30.61C32.882 33.602 31.404 36.483 29.393 38.976C23.892 45.796 15.54 49.561 9.582 45.309Z" fill="#F9EA80"/>
<path d="M24.024 37.754C21.192 41.723 16.214 43.027 12.907 40.666C9.6 38.306 9.215 33.175 12.047 29.206C14.879 25.237 22.421 20.341 25.728 22.701C29.035 25.061 26.856 33.785 24.024 37.754Z" fill="#A46F3E"/>
<path d="M13.868 36.544C14.6964 36.544 15.368 35.8724 15.368 35.044C15.368 34.2156 14.6964 33.544 13.868 33.544C13.0396 33.544 12.368 34.2156 12.368 35.044C12.368 35.8724 13.0396 36.544 13.868 36.544Z" fill="#DC9628"/>
<path d="M17.894 33.337C18.7224 33.337 19.394 32.6654 19.394 31.837C19.394 31.0086 18.7224 30.337 17.894 30.337C17.0656 30.337 16.394 31.0086 16.394 31.837C16.394 32.6654 17.0656 33.337 17.894 33.337Z" fill="#DC9628"/>
<path d="M18.307 38.844C19.1354 38.844 19.807 38.1724 19.807 37.344C19.807 36.5156 19.1354 35.844 18.307 35.844C17.4786 35.844 16.807 36.5156 16.807 37.344C16.807 38.1724 17.4786 38.844 18.307 38.844Z" fill="#DC9628"/>
</g>
<defs>
<clipPath id="clip0">
<rect width="51.793" height="51.793" fill="white"/>
</clipPath>
</defs>
</svg>
